/* XPM */
static char *d10a55b58a0b476e85bcf465478aadd7Y9KtO6Lez6qV6tuZ[] = {
/* columns rows colors chars-per-pixel */
"32 32 24 1 ",
"  c black",
". c gray5",
"X c #080916",
"o c #090916",
"O c #080A16",
"+ c #0A0A16",
"@ c #0B0A16",
"# c #0C0A16",
"$ c #0D0C16",
"% c #0E0C16",
"& c #0F0D17",
"* c #100D17",
"= c #110E18",
"- c #120F18",
"; c #151218",
": c #18141A",
"> c #1B181C",
", c #1C191C",
"< c gray14",
"1 c #272727",
"2 c gray22",
"3 c #003A68",
"4 c #1443B0",
"5 c white",
/* pixels */
"2<<<<3<<.2<<2322<<<.2<<2<2222<<.",
"<OOOO3O#.1OO#3OOOOO.1OOOOOOOOOO.",
"<#O#333O.1OO333OOOO.1O.OOOOOOOO.",
"1$OO3333.1#3333#OO#44O.OOO#O.#O.",
"1###33333<33333..#4433..#3OOO.O.",
"1=$3333333333333O443333*333**#*.",
"1=;333433333333334333333333.---.",
"...3344443333333443333333333....",
"23354444533333344433333333333<<<",
"335 5445 533333333333433333333::",
"345 5445 544333333334333433333::",
"344544445444333333334443343333.:",
"444444444444333344344433444333,,",
"444444444444333344444334443333,,",
"4344444444443334444444444334333,",
".434444444333343444444443344333.",
"2443343433333344444434433444333.",
"14333333434443434433344334444433",
"1:433444334333334433334344444434",
"1:.43344433333333443333444444444",
"11;.4333443333333443333444444444",
"11--4433344333334443333334444444",
"11.**433333443334444333344433444",
".....433334433334444333444333444",
"<22<4433342433332443332444333344",
"*O.o44433OO4433.143333.O4433##44",
"oO.O4433OO4443O.14333.OO4333OO44",
"..OO.43OOO4433O.14333#OOO3.<O44#",
"OO##.1##OO443O#.1o333#.OOO.1.44O",
"#.O#.<XoOOO33O#.1#O3##OOO#.1444O",
"####.1O...#*.##.1.#.#444444444#.",
".......................433334..."
};
