/* XPM */
static char * exit_xpm[] = {
"32 32 53 1",
" 	c None",
".	c #383838",
"+	c #242424",
"@	c #0D0D0D",
"#	c #080A16",
"$	c #272727",
"%	c #0B0A16",
"&	c #0E0C16",
"*	c #0D0A16",
"=	c #090916",
"-	c #0C0A16",
";	c #110E18",
">	c #100D17",
",	c #0E0D16",
"'	c #131118",
")	c #131018",
"!	c #18141A",
"~	c #120F18",
"{	c #3A3A3A",
"]	c #3B3B3B",
"^	c #373737",
"/	c #3C3C3C",
"(	c #323232",
"_	c #2A2A2A",
":	c #2D2D2E",
"<	c #3E3E3E",
"[	c #171717",
"}	c #18161A",
"|	c #19181B",
"1	c #1F1E21",
"2	c #2F2F2F",
"3	c #3D3D3D",
"4	c #343434",
"5	c #191919",
"6	c #1C191C",
"7	c #1B191C",
"8	c #2A292B",
"9	c #393939",
"0	c #2E2D2E",
"a	c #282729",
"b	c #292729",
"c	c #363536",
"d	c #232323",
"e	c #2D2C2D",
"f	c #29282A",
"g	c #3A393A",
"h	c #1C1A1F",
"i	c #302F31",
"j	c #19171D",
"k	c #2C2B2D",
"l	c #373637",
"m	c #161616",
"n	c #2D2D2D",
".+++++++@.++....+++@.++.+....++@",
"+#######@$#########@$##########@",
"+%%%#%##@$#########@$#@########@",
"$&%###@#@$###*##=*#@$#@###*#@##@",
"$&--%@@%@$#@*##@@*#@$*@@**###@*@",
"$;&@@@&-@$>@@,,,**>@$,,>>@@>>**@",
"$;'';;;;@$;>@@>)@@>@$!*>>)~@~>~@",
"@@@@@@@@@@@@@@@@@@@@@@@@@@@@@@@@",
"..++@.++${]^{/((((({/]{$++@.++++",
"!!!!@_:^<(((((((((((((((^:[$}}!!",
"}}|123(((<<<<<<<<<((<<<(((/45@!!",
"6789<((<(((<<<<<<<<<<<<<<((<{$@6",
"603((<(<<<<<(<(((<(<<<<<(<<((3:7",
"a/((<<(<(((<(<<<<<(<(((<(<((((3b",
"4((<<<(<<<<<(<<(<<(<<<<<(<<<<(<c",
"/(<<<<<<(((<<<<(<<<<<(<<<<55<((/",
"<(<<<<(<<<<<(<<(<<(<<(<<(5<<5((/",
"^<((<<(<(((<(<<<<<(5<(<<(5((5(<4",
"23<((<(<<5<<(<(((<(<5<5<(<55(<3d",
"+e3<(((<<<<<<<<<<<<<(5(<<5<((3:@",
"$$f9<<(((<5555<5<5555<5<5((<gf)@",
"$$)hi/<<(((((((((((((((5(</25@)@",
"$$@)>jkl<<<<<<<<<<<<<<<<^kj)>))@",
"@@@@@@@@m+n4.]3<<3].4n+m@@@@@@@@",
"+..+@.++....+++@.+.....+++@.++.+",
"-#@#@$##=======@$=====@===@$##-#",
"##@#@$#@##@####@$###@@##=#@$##@=",
"@@##@$####@@###@$##@@###==@+#@@#",
"=#==@$#=##@@,#=@$====#@=,#@$@@#=",
"#@,=@$====,====@$#,#==#=#=@$@#=#",
"----@$,@@@,-@--@$@-@-,@-@-@$,--@",
"@@@@@@@@@@@@@@@@@@@@@@@@@@@@@@@@"};
