/* XPM */
static char *e77087670f684cd6bc21781ae2d2a7e0NuJrvhTBCzDpGkox[] = {
/* columns rows colors chars-per-pixel */
"32 32 34 1 ",
"  c gray5",
". c #080916",
"X c #090916",
"o c #080A16",
"O c #090A16",
"+ c #0A0A16",
"@ c #0C0A16",
"# c #0E0C16",
"$ c #0E0D16",
"% c #0F0D17",
"& c #100D17",
"* c #120F18",
"= c #131018",
"- c #131118",
"; c #151218",
": c #171419",
"> c #181419",
", c #18141A",
"< c #19161A",
"1 c #1A181B",
"2 c #1A181C",
"3 c #1B191C",
"4 c #1C191C",
"5 c gray14",
"6 c #272727",
"7 c gray22",
"8 c #6B2950",
"9 c gray42",
"0 c #FF6527",
"q c #838383",
"w c gray71",
"e c #BBBBBB",
"r c #FFB9CD",
"t c #BEDBFF",
/* pixels */
"75555555 7557777555 75575777755 ",
"5ooOOOoo 5OOOOOOooo 6oooooooooo ",
"5++Oo888888ooooOooo 6888888oooo ",
"6@++O88e9888ooOOOOO 88qqe88o oo ",
"6.OO8889eq888oo  O@888qw9888@ o ",
"6** 8899eeq88&8888@88qww9988@&& ",
"6*8888999eq888*88 88qqqe998888& ",
"    889wwtqq88 88 88qqtt9988    ",
"775588qt9tqq88888888qqtwtq885555",
"<,,, 88qtwtqq8888888qtwt9886<,,,",
"<<<< 88qqt9wq888888qqwt998 6  <<",
"2<2  888qq9ttq8888qqttq998 6<  <",
"422  88888qttqq88qett9qq88 64111",
"4  4 88888qqtqq88qetqq8884 64444",
"  488848888qqqq88qqqqq8848 54444",
"   8    88888q8888q8888   88    ",
"75557775 8888888888888557777555 ",
"6<<<<<<< 8888888888888<<< <1<<< ",
"6:<<<<<  8880888880888<::< : <: ",
"6:  ;;<  580008880008  <::::::: ",
"66;   =88800r00800r008888=;==:= ",
"66=*= 88 6000r080r000*=*88=   = ",
"65 **$8* 580008 80008&&*=8&*$*= ",
"     8     808   808     8      ",
"5775 8557777585 7877777558 75575",
"OO o 6OoX@XXX8X 68XXXX Xo. 6o@oo",
"Oo o 6O oo oo88 88oo  oooo 6oo o",
"  oo 6OOoo  ooo 6oo  oXXoo 6o  o",
"@oXo 6oOoo  X@o 6XXXXX X@o 6  oo",
"o Xo 6OO@oXXooo 6XoXXXXXoo 6 ooo",
"@&@* 6O   @o && 6 @ && @ @ 6@&@ ",
"                                "
};
