/* XPM */
static char *cdcaa30bcc274eb4fe849d6d630b88c9afA3QZldCmlNmM6O[] = {
/* columns rows colors chars-per-pixel */
"32 32 26 1 ",
"  c gray5",
". c #080916",
"X c #090916",
"o c #080A16",
"O c #0B0A16",
"+ c #0C0A16",
"@ c #0D0A16",
"# c #0E0C16",
"$ c #0E0D16",
"% c #0F0D17",
"& c #100D17",
"* c #110E18",
"= c #120F18",
"- c #131018",
"; c #131118",
": c #171419",
"> c #181419",
", c #18141A",
"< c #18161A",
"1 c #19161A",
"2 c #19181B",
"3 c #1B191C",
"4 c #1C191C",
"5 c gray14",
"6 c #272727",
"7 c gray22",
/* pixels */
"75555555 7557777555 75575777755 ",
"5ooooooo 6ooooooooo 6oooooooooo ",
"5OOOoOoo 6ooooooooo 6o oooooooo ",
"6#Oooo o 6ooo@ooX@o 6o ooo@o oo ",
"6#++O  O 6o @oo  @o 6@  @@ooo @ ",
"6*#   #+ 6&  $$$@@& 6$$&&  &&@@ ",
"6*;;**** 6*&  &-  & 6,@&&-= =&= ",
"                                ",
"7755 7555775555 7555777555 75555",
",,,, 6<,<*<555, 5:,,,,,,>< 6<<,,",
"<<2< 6 ,<<,  << 63:3,,,3   5  ,,",
"43,  6 3<<443<< 6 :33    3 5<  4",
"43,  6 3    433 6  3323344 643<3",
"3  3 644444  33 63  3  334 64434",
"  44 6444444334 6333444434 54434",
"                                ",
"75557775 7555755555 75557777555 ",
"51111111 511111:<<< 6<<11 14<<1 ",
"6111111  61111:  <  6<<<11 1 11 ",
"5:  ::1  61--1  ,,< 5  3-1<=1-1 ",
"66-   -  61---::& - 6<   -1---- ",
"66--- -- 6-   ----- 6--- --   - ",
"66 -&&-& 6&&    &&& 6&&&--&-&-- ",
"                                ",
"5775 7557777555 7577777555 75575",
"+o o 6ooXXXXXXX 6XXXXX XXX 6oo+o",
"oo o 6o oo oooo 6ooo  ooXo 6oo X",
"  oo 6oooo  ooo 6oo  oooXX 5o  o",
"XoXX 6oXoo  $oX 6XXXXo X$o 6  oX",
"o $X 6XXXX$XXXX 6o$oXXoXoX 6 oXo",
"++++ 6$   $+ ++ 6 + +$ + + 6$++ ",
"                                "
};
