/* XPM */
static char *_c11fca0cf3e48caeb478a827875539buRLG60fAwtRHTUdS[] = {
/* columns rows colors chars-per-pixel */
"32 32 6 1 ",
"  c gray12",
". c #555555",
"X c #5B5B5B",
"o c #7E7E7E",
"O c #5BD133",
"+ c #64009D",
/* pixels */
"o....... o..oooo... o..o.oooo.. ",
"X+++++++ X+++++++++ X++++++++++ ",
"X+++++++ X+++++++++ X+ ++++++++ ",
"X+++++ + X+++++++++ X+ +++++ ++ ",
"X++++  + X+ +++  ++ X+  +++++ + ",
"X++   ++ X+  ++++++ X++++  ++++ ",
"X+++++++ X++  ++  + X++++++ +++ ",
"       OO                       ",
"oo.. oO.Ooo.OO. o...ooo... o....",
"++++ XO+O++...+ X+++++++++ X++++",
"++++ O +O++  ++ X+++++++   X  ++",
"+++ OX +O++++++ X +++    + X+  +",
"+++ OX +O   +++ X  +++++++ X++++",
"+  +OX+O+++  ++OO+  +  +++ X++++",
"  ++ X+O++++++O O+++++++++ X++++",
"       O    OO  O               ",
"o...oooO o..Oo.O... o...oooo... ",
"X+++++OO XOO++O++++ X++++ +++++ ",
"X+++++O OO+++OO  +  X+++++ + ++ ",
"X+  ++OO X+++O  +++ X  ++++++++ ",
"XX+   +  X+++O+++ + X+   ++++++ ",
"XX+++ ++ X+  OO++++ X+++ ++   + ",
"XX +++++ X++  O +OO X++++++++++ ",
"             OO  OO             ",
".oo. o..oooo...OOOOoooo... o..o.",
"++ + X+++++++++ X+O+++ +++ X++++",
"++ + X+ ++ ++++ X+++  ++++ X++ +",
"  ++ X++++  +++ X++  +++++ X+  +",
"++++ X++++  +++ X+++++ +++ X  ++",
"+ ++ X+++++++++ X+++++++++ X +++",
"++++ X+   ++ ++ X + ++ + + X+++ ",
"                                "
};
